<svg id="Layer_1" data-name="Layer 1" xmlns="http://www.w3.org/2000/svg" viewBox="0 0 64 46.34"><defs><style>.cls-1{fill:#c01f40;}</style></defs><path class="cls-1" d="M1.37,29.74c-2.29,6.89,0,14.54,6.79,19.93S24.64,56.81,33.32,55c2.29-6.9,0-14.55-6.79-19.94S10.05,27.88,1.37,29.74Z" transform="translate(-0.5 -9.33)"/><path class="cls-1" d="M63.63,29.74c2.3,6.89,0,14.54-6.79,19.93S40.36,56.81,31.68,55c-2.29-6.9,0-14.55,6.79-19.94S55,27.88,63.63,29.74Z" transform="translate(-0.5 -9.33)"/><path class="cls-1" d="M32.39,9.33c7.8,3.54,13.09,10.18,13.13,17.83S40.37,41.48,32.61,45.09c-7.8-3.55-13.09-10.18-13.13-17.83S24.63,12.93,32.39,9.33Z" transform="translate(-0.5 -9.33)"/></svg>