<svg id="Layer_1" data-name="Layer 1" xmlns="http://www.w3.org/2000/svg" viewBox="0 0 90 65.17"><defs><style>.cls-1{fill:#c01f40;}</style></defs><path class="cls-1" d="M6.22,46.11c-3.22,9.7-.06,20.46,9.55,28s23.17,10,35.38,7.43c3.22-9.7.06-20.45-9.55-28S18.42,43.51,6.22,46.11Z" transform="translate(-5 -17.42)"/><path class="cls-1" d="M93.78,46.11c3.22,9.7.06,20.46-9.55,28s-23.17,10-35.38,7.43c-3.22-9.7-.06-20.45,9.55-28S81.58,43.51,93.78,46.11Z" transform="translate(-5 -17.42)"/><path class="cls-1" d="M49.84,17.42c11,5,18.41,14.31,18.47,25.07S61.06,62.63,50.16,67.7c-11-5-18.41-14.32-18.47-25.07S38.94,22.49,49.84,17.42Z" transform="translate(-5 -17.42)"/></svg>